<svg id="Layer_1" data-name="Layer 1" xmlns="http://www.w3.org/2000/svg" viewBox="0 0 373.57 176.5"><defs><style>.cls-1{fill:#fa9b11;}.cls-2{fill:#231f20;}</style></defs><title>logo small</title><text x="-102.2" y="-280.83"/><path class="cls-1" d="M274.94,281l-14.37,85.29a.12.12,0,0,0,.1.14l21.4,4.46a.13.13,0,0,1,.1.12v10.51a.14.14,0,0,1-.1.12l-25.93,5.46a.13.13,0,0,0-.1.11l-5.39,61.09a.09.09,0,0,1,0,.08l-9.83,8.94a.13.13,0,0,1-.08,0H182.35a.12.12,0,0,1-.12-.13l25.19-170.9a.11.11,0,0,1,.05-.09l3.82-2.29a21.6,21.6,0,0,1,11.13-3.08h52.4A.13.13,0,0,1,274.94,281Z" transform="translate(-102.2 -280.83)"/><path class="cls-1" d="M302.91,288.9l9.84-8a.11.11,0,0,1,.07,0h58.36a.11.11,0,0,1,.11.14l-23.38,169.1a.22.22,0,0,1-.05.08l-10.73,7.15a.1.1,0,0,1-.07,0H278.7a.12.12,0,0,1-.12-.13L302.87,289A.12.12,0,0,1,302.91,288.9Z" transform="translate(-102.2 -280.83)"/><path class="cls-2" d="M364.11,377a3.82,3.82,0,0,1,2.27-3.5l108.21-48a.84.84,0,0,1,1.18.76L474,337.43a4,4,0,0,1-.14.57l-2.92,9a3.4,3.4,0,0,1-.38.82,7.1,7.1,0,0,1-3.53,2.83L390.05,379.1a3.82,3.82,0,0,0-.5,6.95l71.33,38.53a3.81,3.81,0,0,1,2,3.8l-.61,5.32a3.89,3.89,0,0,1-.57,1.61l-2.94,4.63a3.81,3.81,0,0,1-5,1.34l-87.58-45.92a3.82,3.82,0,0,1-2.05-3.38Z" transform="translate(-102.2 -280.83)"/></svg>